<svg xmlns="http://www.w3.org/2000/svg" viewBox="0 0 1440 1265" role="img" aria-labelledby="t">
<title id="t">How /baseline decides — the evaluate stack</title>
<rect width="1440" height="1265" fill="#0D1117"/>
<text x="36" y="66" font-family="Segoe Print, Bradley Hand, Chalkboard SE, Comic Sans MS, Comic Neue, cursive, sans-serif" font-size="36" font-weight="bold" fill="#E7E9EE" text-anchor="start">How /baseline decides</text>
<text x="36" y="98" font-family="Segoe Print, Bradley Hand, Chalkboard SE, Comic Sans MS, Comic Neue, cursive, sans-serif" font-size="17" font-weight="normal" fill="#A6ACB8" text-anchor="start">five layers turn a repository into an exit code — each layer knows less than the one above it</text>
<path d="M879.3,34.5 L939.2,36.1 L995.8,37 L1055.8,37 L1111.4,36.3 L1171.2,35 L1229.2,34.7 L1285.9,34.7 L1345.4,37.3 L1403.9,37.7 L1404.5,55.7 L1403.6,76 L1346.5,75.5 L1288,76.3 L1228.1,74.6 L1170.3,75 L1112.8,77.6 L1054.4,77.4 L995.8,75.8 L939.4,74.7 L881.5,74.6 L881.7,56.8 Z" fill="none" stroke="#7B818C" stroke-width="1.8" stroke-linejoin="round"/>
<text x="1142" y="62" font-family="ui-monospace, Menlo, Consolas, monospace" font-size="14" font-weight="normal" fill="#A6ACB8" text-anchor="middle">node check.mjs --repo &lt;path&gt;  →  69 rules  →  scorecard  →  exit code</text>
<g transform="rotate(-90 20 520)"><text x="20" y="520" font-family="Segoe Print, Bradley Hand, Chalkboard SE, Comic Sans MS, Comic Neue, cursive, sans-serif" font-size="13" font-weight="normal" fill="#7B818C" text-anchor="middle">↓ questions go down · facts come up ↑</text></g>
<path d="M35.2,134.7 L98.3,134.5 L155.8,134.4 L219.7,135.8 L280.3,137 L340.3,135.3 L400.4,136.9 L460.8,134.6 L523.2,136.6 L581.6,136.8 L643.2,136.7 L705.5,135.9 L766.1,136.3 L826,135.1 L886,134.8 L884.7,193.7 L886.2,247.4 L824,246.8 L766.2,248.5 L704.5,249.4 L644.8,249.4 L581.4,247.9 L522.4,249.2 L460.4,246.6 L400.2,248.4 L338.7,247.1 L278.5,249.1 L217,247.7 L155.8,248.7 L97.3,248.4 L37.5,247.1 L36.5,190.8 Z" fill="#1C2044" stroke="#8F94F2" stroke-width="2.8" stroke-linejoin="round" transform="rotate(-0.25 461 192)"/>
<path d="M98.2,192 L96.9,201.1 L90.4,207.5 L82.7,212.6 L73.3,212.7 L64.8,208.6 L58,201.6 L56.1,192 L59.2,182.9 L64.4,174.9 L73.4,172 L82.7,171.3 L91.7,174.8 L97.4,182.7 Z" fill="none" stroke="#8F94F2" stroke-width="2.6"/>
<text x="78" y="199" font-family="Segoe Print, Bradley Hand, Chalkboard SE, Comic Sans MS, Comic Neue, cursive, sans-serif" font-size="19" font-weight="bold" fill="#C9CCFF" text-anchor="middle">L1</text>
<text x="114" y="178" font-family="Segoe Print, Bradley Hand, Chalkboard SE, Comic Sans MS, Comic Neue, cursive, sans-serif" font-size="21" font-weight="bold" fill="#C9CCFF" text-anchor="start">THE CLI</text>
<text x="114" y="202" font-family="ui-monospace, Menlo, Consolas, monospace" font-size="12.5" font-weight="normal" fill="#C9CCFF" text-anchor="start" opacity="0.85">check.mjs · 44 lines</text>
<text x="114" y="224" font-family="Segoe Print, Bradley Hand, Chalkboard SE, Comic Sans MS, Comic Neue, cursive, sans-serif" font-size="12.5" font-weight="normal" fill="#C9CCFF" text-anchor="start" opacity="0.8">the only entry point</text>
<text x="388" y="162" font-family="Segoe Print, Bradley Hand, Chalkboard SE, Comic Sans MS, Comic Neue, cursive, sans-serif" font-size="11" font-weight="bold" fill="#8F94F2" text-anchor="start" letter-spacing="2">KNOWS</text>
<text x="388" y="184" font-family="Segoe Print, Bradley Hand, Chalkboard SE, Comic Sans MS, Comic Neue, cursive, sans-serif" font-size="14" font-weight="normal" fill="#C9CCFF" text-anchor="start">flags: --repo · --json · --no-exec</text>
<text x="388" y="203.5" font-family="Segoe Print, Bradley Hand, Chalkboard SE, Comic Sans MS, Comic Neue, cursive, sans-serif" font-size="14" font-weight="normal" fill="#C9CCFF" text-anchor="start">loads rules.json — the 69-rule</text>
<text x="388" y="223" font-family="Segoe Print, Bradley Hand, Chalkboard SE, Comic Sans MS, Comic Neue, cursive, sans-serif" font-size="14" font-weight="normal" fill="#C9CCFF" text-anchor="start">standard, as pure data</text>
<g transform="rotate(-1.8 772 192)"><path d="M675.6,150.2 L739.6,151.5 L804,148.3 L869,151.3 L869,193 L871.5,233.6 L803.2,233 L740.9,234.2 L672.6,234.7 L672.6,193.3 Z" fill="#3B3417" stroke="#C7AA3A" stroke-width="2" stroke-linejoin="round"/><path d="M854,234 L870,218 L854,218 Z" fill="#C7AA3A" opacity="0.35"/></g>
<text x="688" y="174" font-family="Segoe Print, Bradley Hand, Chalkboard SE, Comic Sans MS, Comic Neue, cursive, sans-serif" font-size="11.5" font-weight="bold" fill="#EFDF9C" text-anchor="start">never knows:</text>
<text x="688" y="194" font-family="Segoe Print, Bradley Hand, Chalkboard SE, Comic Sans MS, Comic Neue, cursive, sans-serif" font-size="13" font-weight="normal" fill="#EFDF9C" text-anchor="start">what any rule means</text>
<path d="M176,250 L201,271 L176,292 M244,250 L219,271 L244,292" fill="none" stroke="#7B818C" stroke-width="2.2" stroke-linecap="round"/>
<path d="M214.1,294.9 L210,288 L205.9,294.9" fill="none" stroke="#7B818C" stroke-width="2" stroke-linecap="round" stroke-linejoin="round"/>
<path d="M210,254 Q209.7,270 210,288" fill="none" stroke="#7B818C" stroke-width="2" stroke-linecap="round"/>
<text x="270" y="268" font-family="ui-monospace, Menlo, Consolas, monospace" font-size="13.5" font-weight="normal" fill="#E7E9EE" text-anchor="start">runRules(rules, cfg, evalCheck)</text>
<text x="270" y="286" font-family="Segoe Print, Bradley Hand, Chalkboard SE, Comic Sans MS, Comic Neue, cursive, sans-serif" font-size="13" font-weight="normal" fill="#A6ACB8" text-anchor="start">the standard + the resolved config, handed down</text>
<path d="M37.3,293.8 L95.2,294.6 L157.4,295.4 L218.8,293.8 L279.6,292.5 L339.4,294.5 L400.7,294.1 L459.7,292.9 L523,294.8 L583.3,294 L642.6,293.8 L704.1,293.3 L763.7,294.1 L826,295.2 L886.9,295.5 L884.5,348.9 L887.2,406.9 L826.5,407.5 L763,406.4 L702.3,406.5 L642.1,407.5 L582.5,405.6 L520,406.1 L460.8,405.6 L399.9,407.6 L340.9,405.5 L277.7,407 L219.7,406.6 L156.3,404.7 L98.4,407.7 L36.4,404.5 L37.7,351.7 Z" fill="#2B1A40" stroke="#C77DFF" stroke-width="2.8" stroke-linejoin="round" transform="rotate(0.25 461 350)"/>
<path d="M99,350 L97.9,359.6 L91.5,366.9 L82.6,370.2 L73.2,371 L64.7,366.7 L59.2,359 L57.6,350 L60.1,341.4 L64.4,333 L73.6,330.6 L82.5,330.3 L91.5,333.1 L96.9,340.9 Z" fill="none" stroke="#C77DFF" stroke-width="2.6"/>
<text x="78" y="357" font-family="Segoe Print, Bradley Hand, Chalkboard SE, Comic Sans MS, Comic Neue, cursive, sans-serif" font-size="19" font-weight="bold" fill="#E4CBFF" text-anchor="middle">L2</text>
<text x="114" y="336" font-family="Segoe Print, Bradley Hand, Chalkboard SE, Comic Sans MS, Comic Neue, cursive, sans-serif" font-size="21" font-weight="bold" fill="#E4CBFF" text-anchor="start">THE JUDGE</text>
<text x="114" y="360" font-family="ui-monospace, Menlo, Consolas, monospace" font-size="12.5" font-weight="normal" fill="#E4CBFF" text-anchor="start" opacity="0.85">engine.mjs · 21 lines</text>
<text x="114" y="382" font-family="Segoe Print, Bradley Hand, Chalkboard SE, Comic Sans MS, Comic Neue, cursive, sans-serif" font-size="12.5" font-weight="normal" fill="#E4CBFF" text-anchor="start" opacity="0.8">gate → evaluate → tag</text>
<text x="388" y="320" font-family="Segoe Print, Bradley Hand, Chalkboard SE, Comic Sans MS, Comic Neue, cursive, sans-serif" font-size="11" font-weight="bold" fill="#C77DFF" text-anchor="start" letter-spacing="2">KNOWS</text>
<text x="388" y="342" font-family="Segoe Print, Bradley Hand, Chalkboard SE, Comic Sans MS, Comic Neue, cursive, sans-serif" font-size="14" font-weight="normal" fill="#E4CBFF" text-anchor="start">3 gates: wrong type? profile off?</text>
<text x="388" y="361.5" font-family="Segoe Print, Bradley Hand, Chalkboard SE, Comic Sans MS, Comic Neue, cursive, sans-serif" font-size="14" font-weight="normal" fill="#E4CBFF" text-anchor="start">opted out? → SKIP, never punished</text>
<text x="388" y="381" font-family="Segoe Print, Bradley Hand, Chalkboard SE, Comic Sans MS, Comic Neue, cursive, sans-serif" font-size="14" font-weight="normal" fill="#E4CBFF" text-anchor="start">the tag ladder + severity</text>
<g transform="rotate(1.8 772 350)"><path d="M673.9,306.5 L737.7,309.2 L805.9,309.7 L870.5,306.7 L871.2,348.3 L869.9,391.9 L806.2,393.6 L738.3,391.4 L673.8,391.5 L673.3,349.6 Z" fill="#3B3417" stroke="#C7AA3A" stroke-width="2" stroke-linejoin="round"/><path d="M854,392 L870,376 L854,376 Z" fill="#C7AA3A" opacity="0.35"/></g>
<text x="688" y="332" font-family="Segoe Print, Bradley Hand, Chalkboard SE, Comic Sans MS, Comic Neue, cursive, sans-serif" font-size="11.5" font-weight="bold" fill="#EFDF9C" text-anchor="start">never knows:</text>
<text x="688" y="352" font-family="Segoe Print, Bradley Hand, Chalkboard SE, Comic Sans MS, Comic Neue, cursive, sans-serif" font-size="13" font-weight="normal" fill="#EFDF9C" text-anchor="start">how anything is checked</text>
<path d="M176,408 L201,429 L176,450 M244,408 L219,429 L244,450" fill="none" stroke="#7B818C" stroke-width="2.2" stroke-linecap="round"/>
<path d="M214.1,452.9 L210,446 L205.9,452.9" fill="none" stroke="#7B818C" stroke-width="2" stroke-linecap="round" stroke-linejoin="round"/>
<path d="M210,412 Q211.5,429.8 210,446" fill="none" stroke="#7B818C" stroke-width="2" stroke-linecap="round"/>
<text x="270" y="426" font-family="ui-monospace, Menlo, Consolas, monospace" font-size="13.5" font-weight="normal" fill="#E7E9EE" text-anchor="start">evalCheck(check, rule) → { ok: true | false | null, detail }</text>
<text x="270" y="444" font-family="Segoe Print, Bradley Hand, Chalkboard SE, Comic Sans MS, Comic Neue, cursive, sans-serif" font-size="13" font-weight="normal" fill="#A6ACB8" text-anchor="start">narrow waist #1 — the entire judge ↔ lab interface</text>
<path d="M35,451.6 L97,452.1 L157.8,453.1 L219.8,453.2 L277.4,451.1 L338.4,453.2 L401,452.3 L462.7,452.7 L521.5,451 L583.7,453.1 L642.6,452.4 L702.5,453 L765.4,451.6 L824.7,451.2 L887.2,453.6 L884.6,507 L884.5,565.7 L824.2,565 L764.4,563.6 L704.7,564.2 L643.3,564 L580.8,565 L520,563.2 L460.8,563.3 L400.3,564.8 L338.7,562.3 L279.3,563 L217.3,565.2 L158.2,565 L97.9,563.9 L36.3,564.2 L35.8,508.5 Z" fill="#38290F" stroke="#F0A32F" stroke-width="2.8" stroke-linejoin="round" transform="rotate(-0.25 461 508)"/>
<path d="M98.4,508 L96.5,516.9 L90.5,523.7 L82.8,529 L73.5,527.7 L64.9,524.4 L59.2,517.1 L58.2,508 L58.7,498.7 L65.3,492 L73.2,486.8 L82.7,487.2 L91.8,490.8 L96.1,499.3 Z" fill="none" stroke="#F0A32F" stroke-width="2.6"/>
<text x="78" y="515" font-family="Segoe Print, Bradley Hand, Chalkboard SE, Comic Sans MS, Comic Neue, cursive, sans-serif" font-size="19" font-weight="bold" fill="#FFD98A" text-anchor="middle">L3</text>
<text x="114" y="494" font-family="Segoe Print, Bradley Hand, Chalkboard SE, Comic Sans MS, Comic Neue, cursive, sans-serif" font-size="21" font-weight="bold" fill="#FFD98A" text-anchor="start">THE LAB</text>
<text x="114" y="518" font-family="ui-monospace, Menlo, Consolas, monospace" font-size="12.5" font-weight="normal" fill="#FFD98A" text-anchor="start" opacity="0.85">evaluators.mjs · 21 kinds</text>
<text x="114" y="540" font-family="Segoe Print, Bradley Hand, Chalkboard SE, Comic Sans MS, Comic Neue, cursive, sans-serif" font-size="12.5" font-weight="normal" fill="#FFD98A" text-anchor="start" opacity="0.8">facts only</text>
<text x="388" y="478" font-family="Segoe Print, Bradley Hand, Chalkboard SE, Comic Sans MS, Comic Neue, cursive, sans-serif" font-size="11" font-weight="bold" fill="#F0A32F" text-anchor="start" letter-spacing="2">KNOWS</text>
<text x="388" y="500" font-family="Segoe Print, Bradley Hand, Chalkboard SE, Comic Sans MS, Comic Neue, cursive, sans-serif" font-size="14" font-weight="normal" fill="#FFD98A" text-anchor="start">how to verify each claim: grep,</text>
<text x="388" y="519.5" font-family="Segoe Print, Bradley Hand, Chalkboard SE, Comic Sans MS, Comic Neue, cursive, sans-serif" font-size="14" font-weight="normal" fill="#FFD98A" text-anchor="start">any-file, json-field, command,</text>
<text x="388" y="539" font-family="Segoe Print, Bradley Hand, Chalkboard SE, Comic Sans MS, Comic Neue, cursive, sans-serif" font-size="14" font-weight="normal" fill="#FFD98A" text-anchor="start">signoff… (any-of &amp; implies recurse)</text>
<g transform="rotate(-1.8 772 508)"><path d="M675.5,466 L740,467.6 L804,466.7 L870,466.6 L868.9,507.3 L871.1,549.3 L804,551.7 L739.4,550.3 L672.8,550.4 L673.5,506.6 Z" fill="#3B3417" stroke="#C7AA3A" stroke-width="2" stroke-linejoin="round"/><path d="M854,550 L870,534 L854,534 Z" fill="#C7AA3A" opacity="0.35"/></g>
<text x="688" y="490" font-family="Segoe Print, Bradley Hand, Chalkboard SE, Comic Sans MS, Comic Neue, cursive, sans-serif" font-size="11.5" font-weight="bold" fill="#EFDF9C" text-anchor="start">never knows:</text>
<text x="688" y="510" font-family="Segoe Print, Bradley Hand, Chalkboard SE, Comic Sans MS, Comic Neue, cursive, sans-serif" font-size="13" font-weight="normal" fill="#EFDF9C" text-anchor="start">severity, or what happens</text>
<text x="688" y="528" font-family="Segoe Print, Bradley Hand, Chalkboard SE, Comic Sans MS, Comic Neue, cursive, sans-serif" font-size="13" font-weight="normal" fill="#EFDF9C" text-anchor="start">to its result</text>
<path d="M176,566 L201,587 L176,608 M244,566 L219,587 L244,608" fill="none" stroke="#7B818C" stroke-width="2.2" stroke-linecap="round"/>
<path d="M214.1,610.9 L210,604 L205.9,610.9" fill="none" stroke="#7B818C" stroke-width="2" stroke-linecap="round" stroke-linejoin="round"/>
<path d="M210,570 Q209.4,586.3 210,604" fill="none" stroke="#7B818C" stroke-width="2" stroke-linecap="round"/>
<text x="270" y="584" font-family="ui-monospace, Menlo, Consolas, monospace" font-size="13.5" font-weight="normal" fill="#E7E9EE" text-anchor="start">match · read · readText · readRaw · git*</text>
<text x="270" y="602" font-family="Segoe Print, Bradley Hand, Chalkboard SE, Comic Sans MS, Comic Neue, cursive, sans-serif" font-size="13" font-weight="normal" fill="#A6ACB8" text-anchor="start">narrow waist #2 — all the lab ever sees of a repo</text>
<path d="M36.3,610.1 L96.9,608.9 L157.2,611.5 L216.5,611.1 L279.9,610.7 L340.3,609.6 L399.7,611.2 L459.6,609.7 L520.8,610.3 L582.7,608.9 L644.4,609.1 L704.8,611.1 L764,610.4 L824.4,608.8 L887.3,608.6 L885.4,665.3 L886.6,723.6 L825.5,720.6 L763.4,723.2 L704.5,722.9 L641.6,721.4 L581.7,722.1 L520.7,720.9 L459.4,721.4 L401.6,723.6 L338.8,723 L280.1,721.4 L218.6,721.4 L157.2,723 L97.4,721.1 L37,722.7 L34.9,666 Z" fill="#0E2E29" stroke="#2FB5A5" stroke-width="2.8" stroke-linejoin="round" transform="rotate(0.25 461 666)"/>
<path d="M98.5,666 L96.6,674.9 L91.3,682.6 L82.6,686.1 L73.4,686.3 L65.5,681.6 L58.4,675.5 L57.2,666 L59.8,657.2 L64.9,649.6 L73.1,644.7 L82.5,646.2 L91.3,649.4 L96.2,657.2 Z" fill="none" stroke="#2FB5A5" stroke-width="2.6"/>
<text x="78" y="673" font-family="Segoe Print, Bradley Hand, Chalkboard SE, Comic Sans MS, Comic Neue, cursive, sans-serif" font-size="19" font-weight="bold" fill="#9FE8DD" text-anchor="middle">L4</text>
<text x="114" y="652" font-family="Segoe Print, Bradley Hand, Chalkboard SE, Comic Sans MS, Comic Neue, cursive, sans-serif" font-size="21" font-weight="bold" fill="#9FE8DD" text-anchor="start">THE SENSES</text>
<text x="114" y="676" font-family="ui-monospace, Menlo, Consolas, monospace" font-size="12.5" font-weight="normal" fill="#9FE8DD" text-anchor="start" opacity="0.85">repo.mjs · 64 lines</text>
<text x="114" y="698" font-family="Segoe Print, Bradley Hand, Chalkboard SE, Comic Sans MS, Comic Neue, cursive, sans-serif" font-size="12.5" font-weight="normal" fill="#9FE8DD" text-anchor="start" opacity="0.8">the repo index, built once</text>
<text x="388" y="636" font-family="Segoe Print, Bradley Hand, Chalkboard SE, Comic Sans MS, Comic Neue, cursive, sans-serif" font-size="11" font-weight="bold" fill="#2FB5A5" text-anchor="start" letter-spacing="2">KNOWS</text>
<text x="388" y="658" font-family="Segoe Print, Bradley Hand, Chalkboard SE, Comic Sans MS, Comic Neue, cursive, sans-serif" font-size="14" font-weight="normal" fill="#9FE8DD" text-anchor="start">find: match(globs) · read: 3</text>
<text x="388" y="677.5" font-family="Segoe Print, Bradley Hand, Chalkboard SE, Comic Sans MS, Comic Neue, cursive, sans-serif" font-size="14" font-weight="normal" fill="#9FE8DD" text-anchor="start">paranoia levels · ask git: age,</text>
<text x="388" y="697" font-family="Segoe Print, Bradley Hand, Chalkboard SE, Comic Sans MS, Comic Neue, cursive, sans-serif" font-size="14" font-weight="normal" fill="#9FE8DD" text-anchor="start">ancestry, lag behind HEAD</text>
<g transform="rotate(1.8 772 666)"><path d="M673.6,624.5 L740.7,623.4 L806.1,623.8 L870.1,623.6 L870.3,665.9 L869.1,709.2 L805.6,706.6 L739.5,707.1 L674.4,708.5 L673.5,665.8 Z" fill="#3B3417" stroke="#C7AA3A" stroke-width="2" stroke-linejoin="round"/><path d="M854,708 L870,692 L854,692 Z" fill="#C7AA3A" opacity="0.35"/></g>
<text x="688" y="648" font-family="Segoe Print, Bradley Hand, Chalkboard SE, Comic Sans MS, Comic Neue, cursive, sans-serif" font-size="11.5" font-weight="bold" fill="#EFDF9C" text-anchor="start">never knows:</text>
<text x="688" y="668" font-family="Segoe Print, Bradley Hand, Chalkboard SE, Comic Sans MS, Comic Neue, cursive, sans-serif" font-size="13" font-weight="normal" fill="#EFDF9C" text-anchor="start">what a “rule” even is</text>
<path d="M176,724 L201,745 L176,766 M244,724 L219,745 L244,766" fill="none" stroke="#7B818C" stroke-width="2.2" stroke-linecap="round"/>
<path d="M214.1,768.9 L210,762 L205.9,768.9" fill="none" stroke="#7B818C" stroke-width="2" stroke-linecap="round" stroke-linejoin="round"/>
<path d="M210,728 Q209.1,744.1 210,762" fill="none" stroke="#7B818C" stroke-width="2" stroke-linecap="round"/>
<text x="270" y="742" font-family="ui-monospace, Menlo, Consolas, monospace" font-size="13.5" font-weight="normal" fill="#E7E9EE" text-anchor="start">readFileSync · execFile('git', …)</text>
<text x="270" y="760" font-family="Segoe Print, Bradley Hand, Chalkboard SE, Comic Sans MS, Comic Neue, cursive, sans-serif" font-size="13" font-weight="normal" fill="#A6ACB8" text-anchor="start">argv only, no shell strings — a hostile repo can’t inject</text>
<path d="M35.3,769.7 L97.1,766.9 L157.6,768.3 L219.2,767.8 L279.8,767.9 L340.2,767.2 L401.6,769.1 L462.2,769.4 L522.4,769.6 L584.1,769.5 L643.3,767.1 L704.7,767 L763,768.2 L826.7,766.6 L885.7,768.3 L886.2,825.6 L885.3,878.8 L824.5,878.8 L765.1,880.7 L705.1,880.2 L644.5,880.4 L582.8,880.7 L521.8,881.3 L462.2,881.6 L399.3,879.2 L338.8,879.5 L280,878.6 L218.5,880.5 L157.5,881.5 L95.2,880.7 L36.6,878.8 L35.3,823.6 Z" fill="#22262C" stroke="#8B919B" stroke-width="2.8" stroke-linejoin="round" transform="rotate(-0.25 461 824)"/>
<path d="M98.7,824 L97.4,833.4 L91.7,841.1 L82.7,844.5 L73.1,845.3 L64.6,840.8 L58,833.6 L57.1,824 L59.5,815.1 L65.6,808.4 L73.4,804 L82.5,804.3 L90.9,807.8 L96.9,814.9 Z" fill="none" stroke="#8B919B" stroke-width="2.6"/>
<text x="78" y="831" font-family="Segoe Print, Bradley Hand, Chalkboard SE, Comic Sans MS, Comic Neue, cursive, sans-serif" font-size="19" font-weight="bold" fill="#C8CDD5" text-anchor="middle">L5</text>
<text x="114" y="810" font-family="Segoe Print, Bradley Hand, Chalkboard SE, Comic Sans MS, Comic Neue, cursive, sans-serif" font-size="21" font-weight="bold" fill="#C8CDD5" text-anchor="start">THE WORLD</text>
<text x="114" y="834" font-family="ui-monospace, Menlo, Consolas, monospace" font-size="12.5" font-weight="normal" fill="#C8CDD5" text-anchor="start" opacity="0.85">node:fs + git</text>
<text x="114" y="856" font-family="Segoe Print, Bradley Hand, Chalkboard SE, Comic Sans MS, Comic Neue, cursive, sans-serif" font-size="12.5" font-weight="normal" fill="#C8CDD5" text-anchor="start" opacity="0.8">the only true things</text>
<text x="388" y="794" font-family="Segoe Print, Bradley Hand, Chalkboard SE, Comic Sans MS, Comic Neue, cursive, sans-serif" font-size="11" font-weight="bold" fill="#8B919B" text-anchor="start" letter-spacing="2">KNOWS</text>
<text x="388" y="816" font-family="Segoe Print, Bradley Hand, Chalkboard SE, Comic Sans MS, Comic Neue, cursive, sans-serif" font-size="14" font-weight="normal" fill="#C8CDD5" text-anchor="start">bytes on disk</text>
<text x="388" y="835.5" font-family="Segoe Print, Bradley Hand, Chalkboard SE, Comic Sans MS, Comic Neue, cursive, sans-serif" font-size="14" font-weight="normal" fill="#C8CDD5" text-anchor="start">the git object database</text>
<g transform="rotate(-1.8 772 824)"><path d="M674.2,781.4 L738.3,780.8 L805.9,782.8 L868.6,781.7 L868.4,822.5 L868.5,867 L803.9,866.3 L740.7,866.3 L674.8,864.7 L673.8,824.2 Z" fill="#3B3417" stroke="#C7AA3A" stroke-width="2" stroke-linejoin="round"/><path d="M854,866 L870,850 L854,850 Z" fill="#C7AA3A" opacity="0.35"/></g>
<text x="688" y="806" font-family="Segoe Print, Bradley Hand, Chalkboard SE, Comic Sans MS, Comic Neue, cursive, sans-serif" font-size="11.5" font-weight="bold" fill="#EFDF9C" text-anchor="start">never knows:</text>
<text x="688" y="826" font-family="Segoe Print, Bradley Hand, Chalkboard SE, Comic Sans MS, Comic Neue, cursive, sans-serif" font-size="13" font-weight="normal" fill="#EFDF9C" text-anchor="start">everything above</text>
<path d="M916.1,137.4 L977,135 L1035.8,137.4 L1097.1,135 L1157.9,137 L1219.5,135.4 L1283.4,134.8 L1343.4,136.8 L1402.6,136.7 L1404.8,198.5 L1403.3,259 L1402.5,321.6 L1402.6,383.2 L1404,447.5 L1403.9,509.5 L1402.7,571.5 L1405.3,633.4 L1404,695.1 L1403.8,755 L1404.5,818.8 L1405.3,881.5 L1344.1,880.5 L1281.2,879 L1220.3,879.9 L1158.6,880.7 L1097.8,879.1 L1036.4,880.3 L974.6,879.8 L916.1,880.6 L916.6,819.2 L914.9,757 L914.1,694.8 L914.5,633.7 L914.9,571.1 L915,507.1 L914.4,445.2 L916.2,384.6 L914.1,320.3 L915.3,259.4 L914.8,196.4 Z" fill="#161B22" stroke="#E7E9EE" stroke-width="2" stroke-linejoin="round" stroke-dasharray="9 7"/>
<path d="M913.3,134.5 L977.7,136.7 L1037.3,135.7 L1098.3,135.1 L1159.7,136.8 L1219.8,134.8 L1282.6,136.1 L1341.8,135.6 L1403.3,136.1 L1403.3,199.6 L1403.1,261.3 L1402.9,320.8 L1402.8,383.3 L1404.2,446.9 L1402.6,509.4 L1404.2,570.4 L1404.6,633.6 L1404.4,695.4 L1405.1,754.4 L1402.9,817.5 L1403.7,878.4 L1341.5,880.9 L1281.3,879.8 L1220.5,881.5 L1160.2,880.6 L1097.8,879.5 L1036,878.8 L977.5,879.4 L913.9,880.4 L914.4,816.4 L915.6,757.4 L915.2,695.1 L915.5,633.4 L913.7,570.1 L915.5,509.3 L916.6,447.1 L915.3,385.6 L916.6,322.2 L916.1,258.3 L915.1,197.4 Z" fill="#161B22" opacity="0.6" stroke="none"/>
<text x="939" y="174" font-family="Segoe Print, Bradley Hand, Chalkboard SE, Comic Sans MS, Comic Neue, cursive, sans-serif" font-size="22" font-weight="bold" fill="#E7E9EE" text-anchor="start">watch one rule run</text>
<text x="939" y="198" font-family="Segoe Print, Bradley Hand, Chalkboard SE, Comic Sans MS, Comic Neue, cursive, sans-serif" font-size="13.5" font-weight="normal" fill="#A6ACB8" text-anchor="start">SEC-01 “no committed secrets” · on the node-fail fixture repo</text>
<path d="M968.9,242 L967.4,248 L963.8,253 L958.2,256 L951.6,256.8 L946.9,252.2 L941.4,248.5 L941.6,242 L943.3,236.4 L946.7,231.6 L951.7,227.6 L958.2,227.9 L963.3,231.5 L968.1,235.7 Z" fill="#1C2044" stroke="#8F94F2" stroke-width="2.4"/>
<text x="955" y="247.5" font-family="Segoe Print, Bradley Hand, Chalkboard SE, Comic Sans MS, Comic Neue, cursive, sans-serif" font-size="14" font-weight="bold" fill="#C9CCFF" text-anchor="middle">1</text>
<path d="M941,242 Q912,221 890,192" fill="none" stroke="#8F94F2" stroke-width="1.4" stroke-linecap="round" stroke-dasharray="1 5"/>
<text x="981" y="240" font-family="Segoe Print, Bradley Hand, Chalkboard SE, Comic Sans MS, Comic Neue, cursive, sans-serif" font-size="14.5" font-weight="bold" fill="#E7E9EE" text-anchor="start">SEC-01 loaded — severity: blocker</text>
<text x="981" y="260" font-family="Segoe Print, Bradley Hand, Chalkboard SE, Comic Sans MS, Comic Neue, cursive, sans-serif" font-size="13" font-weight="normal" fill="#A6ACB8" text-anchor="start">the rule is data; the CLI doesn’t interpret it</text>
<path d="M955,256 Q957.1,308.7 955,358" fill="none" stroke="#7B818C" stroke-width="2" stroke-linecap="round" stroke-dasharray="2 6"/><path d="M960.7,367.4 L955,358 L949.3,367.4" fill="none" stroke="#7B818C" stroke-width="2" stroke-linecap="round" stroke-linejoin="round"/>
<path d="M968.8,372 L968.5,378.5 L964.4,383.8 L958.1,385.5 L952.1,384.5 L946.6,382.5 L942.7,377.9 L940.1,372 L942.2,365.8 L946.3,361.1 L952,359 L958.4,357.2 L964.2,360.5 L966.8,366.3 Z" fill="#2B1A40" stroke="#C77DFF" stroke-width="2.4"/>
<text x="955" y="377.5" font-family="Segoe Print, Bradley Hand, Chalkboard SE, Comic Sans MS, Comic Neue, cursive, sans-serif" font-size="14" font-weight="bold" fill="#E4CBFF" text-anchor="middle">2</text>
<path d="M941,372 Q915.2,358.9 890,350" fill="none" stroke="#C77DFF" stroke-width="1.4" stroke-linecap="round" stroke-dasharray="1 5"/>
<text x="981" y="370" font-family="Segoe Print, Bradley Hand, Chalkboard SE, Comic Sans MS, Comic Neue, cursive, sans-serif" font-size="14.5" font-weight="bold" fill="#E7E9EE" text-anchor="start">gates pass → try { evalCheck(check, rule) }</text>
<text x="981" y="390" font-family="Segoe Print, Bradley Hand, Chalkboard SE, Comic Sans MS, Comic Neue, cursive, sans-serif" font-size="13" font-weight="normal" fill="#A6ACB8" text-anchor="start">a crashing check degrades to SKIP — never a false FAIL</text>
<path d="M955,386 Q954.8,436 955,488" fill="none" stroke="#7B818C" stroke-width="2" stroke-linecap="round" stroke-dasharray="2 6"/><path d="M960.7,497.4 L955,488 L949.3,497.4" fill="none" stroke="#7B818C" stroke-width="2" stroke-linecap="round" stroke-linejoin="round"/>
<path d="M968.5,502 L967.8,508.2 L964.1,513.4 L958.2,515.8 L951.6,516.7 L946.5,512.6 L941.5,508.5 L940.5,502 L942.9,496.2 L946.7,491.6 L952,489 L958.2,488.1 L964.4,490.2 L967.6,496 Z" fill="#38290F" stroke="#F0A32F" stroke-width="2.4"/>
<text x="955" y="507.5" font-family="Segoe Print, Bradley Hand, Chalkboard SE, Comic Sans MS, Comic Neue, cursive, sans-serif" font-size="14" font-weight="bold" fill="#FFD98A" text-anchor="middle">3</text>
<path d="M941,502 Q917.5,501.9 890,508" fill="none" stroke="#F0A32F" stroke-width="1.4" stroke-linecap="round" stroke-dasharray="1 5"/>
<text x="981" y="500" font-family="Segoe Print, Bradley Hand, Chalkboard SE, Comic Sans MS, Comic Neue, cursive, sans-serif" font-size="14.5" font-weight="bold" fill="#E7E9EE" text-anchor="start">kind: grep — credential regex, mode: “absent”</text>
<text x="981" y="520" font-family="Segoe Print, Bradley Hand, Chalkboard SE, Comic Sans MS, Comic Neue, cursive, sans-serif" font-size="13" font-weight="normal" fill="#A6ACB8" text-anchor="start">pass only if NOTHING matches</text>
<path d="M955,516 Q952.8,567.6 955,618" fill="none" stroke="#7B818C" stroke-width="2" stroke-linecap="round" stroke-dasharray="2 6"/><path d="M960.7,627.4 L955,618 L949.3,627.4" fill="none" stroke="#7B818C" stroke-width="2" stroke-linecap="round" stroke-linejoin="round"/>
<path d="M968.4,632 L968,638.2 L963.1,642.2 L958,645.3 L952,645.2 L945.9,643.4 L942.5,638 L940.1,632 L942.3,625.9 L945.6,620.2 L951.7,617.3 L958.3,617.7 L963.2,621.7 L966.7,626.4 Z" fill="#0E2E29" stroke="#2FB5A5" stroke-width="2.4"/>
<text x="955" y="637.5" font-family="Segoe Print, Bradley Hand, Chalkboard SE, Comic Sans MS, Comic Neue, cursive, sans-serif" font-size="14" font-weight="bold" fill="#9FE8DD" text-anchor="middle">4</text>
<path d="M941,632 Q918.7,645.6 890,666" fill="none" stroke="#2FB5A5" stroke-width="1.4" stroke-linecap="round" stroke-dasharray="1 5"/>
<text x="981" y="630" font-family="Segoe Print, Bradley Hand, Chalkboard SE, Comic Sans MS, Comic Neue, cursive, sans-serif" font-size="14.5" font-weight="bold" fill="#E7E9EE" text-anchor="start">readRaw(“.env”) — the paranoid read</text>
<text x="981" y="650" font-family="Segoe Print, Bradley Hand, Chalkboard SE, Comic Sans MS, Comic Neue, cursive, sans-serif" font-size="13" font-weight="normal" fill="#A6ACB8" text-anchor="start">big &amp; binary files not skipped: secrets hide there</text>
<path d="M955,646 Q953.9,695.2 955,748" fill="none" stroke="#7B818C" stroke-width="2" stroke-linecap="round" stroke-dasharray="2 6"/><path d="M960.7,757.4 L955,748 L949.3,757.4" fill="none" stroke="#7B818C" stroke-width="2" stroke-linecap="round" stroke-linejoin="round"/>
<path d="M968.2,762 L967.2,767.9 L963.1,772.2 L958.1,775.6 L951.8,775.9 L946.8,772.3 L942.5,768 L941.3,762 L942.7,756.1 L946.9,751.9 L951.8,748 L958.1,748.6 L963.4,751.4 L967.2,756.1 Z" fill="#22262C" stroke="#8B919B" stroke-width="2.4"/>
<text x="955" y="767.5" font-family="Segoe Print, Bradley Hand, Chalkboard SE, Comic Sans MS, Comic Neue, cursive, sans-serif" font-size="14" font-weight="bold" fill="#C8CDD5" text-anchor="middle">5</text>
<path d="M941,762 Q919.4,790.2 890,824" fill="none" stroke="#8B919B" stroke-width="1.4" stroke-linecap="round" stroke-dasharray="1 5"/>
<text x="981" y="760" font-family="Segoe Print, Bradley Hand, Chalkboard SE, Comic Sans MS, Comic Neue, cursive, sans-serif" font-size="14.5" font-weight="bold" fill="#E7E9EE" text-anchor="start">AWS_SECRET_ACCESS_KEY=wJalrXUtn…</text>
<text x="981" y="780" font-family="Segoe Print, Bradley Hand, Chalkboard SE, Comic Sans MS, Comic Neue, cursive, sans-serif" font-size="13" font-weight="normal" fill="#A6ACB8" text-anchor="start">a planted fake key in the node-fail fixture</text>
<path d="M955,782 Q958.8,867.8 955,955" fill="none" stroke="#F26D6D" stroke-width="2.2" stroke-linecap="round"/><path d="M960.7,964.4 L955,955 L949.3,964.4" fill="none" stroke="#F26D6D" stroke-width="2.2" stroke-linecap="round" stroke-linejoin="round"/>
<text x="730" y="927" font-family="Segoe Print, Bradley Hand, Chalkboard SE, Comic Sans MS, Comic Neue, cursive, sans-serif" font-size="15.5" font-weight="bold" fill="#F26D6D" paint-order="stroke" stroke="#0D1117" stroke-width="7" stroke-linejoin="round">…and the answer climbs back up the stack:</text>
<path d="M731.3,940.3 L791.1,939.6 L856.4,940.5 L917.8,941.2 L979.2,942.4 L980.1,980.6 L980.1,1020.1 L918.5,1019.8 L855.4,1019.5 L794.1,1018.6 L729.8,1019.5 L729.2,980.6 Z" fill="#161B22" stroke="#F0A32F" stroke-width="2.2" stroke-linejoin="round" transform="rotate(-0.4 855 980)"/>
<text x="748" y="971" font-family="ui-monospace, Menlo, Consolas, monospace" font-size="12.5" font-weight="normal" fill="#E7E9EE" text-anchor="start">{ ok: false, “matched in</text>
<text x="748" y="989" font-family="ui-monospace, Menlo, Consolas, monospace" font-size="12.5" font-weight="normal" fill="#E7E9EE" text-anchor="start">2 file(s): .env, config.js” }</text>
<text x="748" y="1011" font-family="Segoe Print, Bradley Hand, Chalkboard SE, Comic Sans MS, Comic Neue, cursive, sans-serif" font-size="12.5" font-weight="normal" fill="#A6ACB8" text-anchor="start">the lab states facts + evidence</text>
<path d="M984,979 Q998.1,978.7 1016,979" fill="none" stroke="#F26D6D" stroke-width="2.2" stroke-linecap="round"/><path d="M1025.4,973.3 L1016,979 L1025.4,984.7" fill="none" stroke="#F26D6D" stroke-width="2.2" stroke-linecap="round" stroke-linejoin="round"/>
<path d="M1020.4,939.4 L1091,939.4 L1158.4,942.4 L1229.2,940.5 L1226.5,980.4 L1228.3,1018.5 L1158.1,1019.2 L1089.3,1019.2 L1019,1019.7 L1021.1,980.1 Z" fill="#161B22" stroke="#C77DFF" stroke-width="2.2" stroke-linejoin="round" transform="rotate(0.4 1124 980)"/>
<text x="1038" y="971" font-family="Segoe Print, Bradley Hand, Chalkboard SE, Comic Sans MS, Comic Neue, cursive, sans-serif" font-size="12.5" font-weight="normal" fill="#E7E9EE" text-anchor="start">ladder: not null · not true ·</text>
<text x="1038" y="989" font-family="Segoe Print, Bradley Hand, Chalkboard SE, Comic Sans MS, Comic Neue, cursive, sans-serif" font-size="12.5" font-weight="normal" fill="#E7E9EE" text-anchor="start">no sign-off → blocker ⇒ FAIL</text>
<text x="1038" y="1011" font-family="Segoe Print, Bradley Hand, Chalkboard SE, Comic Sans MS, Comic Neue, cursive, sans-serif" font-size="12.5" font-weight="normal" fill="#A6ACB8" text-anchor="start">the judge applies meaning</text>
<path d="M1232,979 Q1249.1,980.7 1264,979" fill="none" stroke="#F26D6D" stroke-width="2.2" stroke-linecap="round"/><path d="M1273.4,973.3 L1264,979 L1273.4,984.7" fill="none" stroke="#F26D6D" stroke-width="2.2" stroke-linecap="round" stroke-linejoin="round"/>
<path d="M1269.6,939.7 L1334.6,939.4 L1403.3,940.8 L1405.6,980 L1403.7,1019.7 L1337.3,1019.9 L1267.4,1018.5 L1266.5,981.3 Z" fill="#161B22" stroke="#F26D6D" stroke-width="2.6" stroke-linejoin="round" transform="rotate(-0.5 1336 980)"/>
<text x="1336" y="975" font-family="Segoe Print, Bradley Hand, Chalkboard SE, Comic Sans MS, Comic Neue, cursive, sans-serif" font-size="19" font-weight="bold" fill="#F26D6D" text-anchor="middle">exit 1</text>
<text x="1336" y="999" font-family="Segoe Print, Bradley Hand, Chalkboard SE, Comic Sans MS, Comic Neue, cursive, sans-serif" font-size="12.5" font-weight="normal" fill="#F26D6D" text-anchor="middle">CI goes red</text>
<text x="36" y="927" font-family="Segoe Print, Bradley Hand, Chalkboard SE, Comic Sans MS, Comic Neue, cursive, sans-serif" font-size="15.5" font-weight="bold" fill="#E7E9EE" text-anchor="start">the tag ladder — meaning first, severity is consulted LAST</text>
<path d="M35,939.9 L97.9,941.3 L155.4,940.6 L155.3,979.7 L157.4,1020.3 L98.1,1018.6 L36.3,1017.5 L35.5,978.6 Z" fill="#161B22" stroke="#9AA0AB" stroke-width="2.4" stroke-linejoin="round" transform="rotate(-0.6 96.5 980)"/>
<text x="96" y="967" font-family="Segoe Print, Bradley Hand, Chalkboard SE, Comic Sans MS, Comic Neue, cursive, sans-serif" font-size="15.5" font-weight="bold" fill="#9AA0AB" text-anchor="middle">SKIP</text>
<text x="96" y="987" font-family="Segoe Print, Bradley Hand, Chalkboard SE, Comic Sans MS, Comic Neue, cursive, sans-serif" font-size="10.5" font-weight="normal" fill="#A6ACB8" text-anchor="middle">couldn’t judge —</text>
<text x="96" y="1001" font-family="Segoe Print, Bradley Hand, Chalkboard SE, Comic Sans MS, Comic Neue, cursive, sans-serif" font-size="10.5" font-weight="normal" fill="#A6ACB8" text-anchor="middle">not held against you</text>
<path d="M158,980 Q163.1,979.1 168,980" fill="none" stroke="#7B818C" stroke-width="1.8" stroke-linecap="round"/><path d="M177.4,974.3 L168,980 L177.4,985.7" fill="none" stroke="#7B818C" stroke-width="1.8" stroke-linecap="round" stroke-linejoin="round"/>
<path d="M168.4,941.9 L228.3,942.1 L291.2,940.8 L288.8,979.1 L288.4,1017.4 L230.8,1019.7 L168.2,1018.8 L169,981.3 Z" fill="#161B22" stroke="#4CC272" stroke-width="2.4" stroke-linejoin="round" transform="rotate(0.6 229.5 980)"/>
<text x="229" y="967" font-family="Segoe Print, Bradley Hand, Chalkboard SE, Comic Sans MS, Comic Neue, cursive, sans-serif" font-size="15.5" font-weight="bold" fill="#4CC272" text-anchor="middle">PASS</text>
<text x="229" y="987" font-family="Segoe Print, Bradley Hand, Chalkboard SE, Comic Sans MS, Comic Neue, cursive, sans-serif" font-size="10.5" font-weight="normal" fill="#A6ACB8" text-anchor="middle">checked,</text>
<text x="229" y="1001" font-family="Segoe Print, Bradley Hand, Chalkboard SE, Comic Sans MS, Comic Neue, cursive, sans-serif" font-size="10.5" font-weight="normal" fill="#A6ACB8" text-anchor="middle">it’s fine</text>
<path d="M291,980 Q295.9,979.2 301,980" fill="none" stroke="#7B818C" stroke-width="1.8" stroke-linecap="round"/><path d="M310.4,974.3 L301,980 L310.4,985.7" fill="none" stroke="#7B818C" stroke-width="1.8" stroke-linecap="round" stroke-linejoin="round"/>
<path d="M303.3,941.5 L363.5,939.7 L423.3,942.4 L424.4,979.8 L423.9,1019.1 L364.1,1020.3 L301.4,1020 L303.7,978.6 Z" fill="#161B22" stroke="#6EA8FE" stroke-width="2.4" stroke-linejoin="round" transform="rotate(-0.6 362.5 980)"/>
<text x="362" y="967" font-family="Segoe Print, Bradley Hand, Chalkboard SE, Comic Sans MS, Comic Neue, cursive, sans-serif" font-size="15.5" font-weight="bold" fill="#6EA8FE" text-anchor="middle">SIGN-OFF</text>
<text x="362" y="987" font-family="Segoe Print, Bradley Hand, Chalkboard SE, Comic Sans MS, Comic Neue, cursive, sans-serif" font-size="10.5" font-weight="normal" fill="#A6ACB8" text-anchor="middle">a human judged it,</text>
<text x="362" y="1001" font-family="Segoe Print, Bradley Hand, Chalkboard SE, Comic Sans MS, Comic Neue, cursive, sans-serif" font-size="10.5" font-weight="normal" fill="#A6ACB8" text-anchor="middle">dated + on record</text>
<path d="M424,980 Q428.4,980.7 434,980" fill="none" stroke="#7B818C" stroke-width="1.8" stroke-linecap="round"/><path d="M443.4,974.3 L434,980 L443.4,985.7" fill="none" stroke="#7B818C" stroke-width="1.8" stroke-linecap="round" stroke-linejoin="round"/>
<path d="M436.6,940.1 L496.3,940.7 L555.4,940.8 L557.4,979.1 L557.1,1018.3 L496.2,1018.2 L435.5,1019.1 L433.5,980.3 Z" fill="#161B22" stroke="#F0A32F" stroke-width="2.4" stroke-linejoin="round" transform="rotate(0.6 495.5 980)"/>
<text x="495" y="967" font-family="Segoe Print, Bradley Hand, Chalkboard SE, Comic Sans MS, Comic Neue, cursive, sans-serif" font-size="15.5" font-weight="bold" fill="#F0A32F" text-anchor="middle">WARN</text>
<text x="495" y="987" font-family="Segoe Print, Bradley Hand, Chalkboard SE, Comic Sans MS, Comic Neue, cursive, sans-serif" font-size="10.5" font-weight="normal" fill="#A6ACB8" text-anchor="middle">real shortfall,</text>
<text x="495" y="1001" font-family="Segoe Print, Bradley Hand, Chalkboard SE, Comic Sans MS, Comic Neue, cursive, sans-serif" font-size="10.5" font-weight="normal" fill="#A6ACB8" text-anchor="middle">doesn’t block</text>
<path d="M557,980 Q562.5,980.5 567,980" fill="none" stroke="#7B818C" stroke-width="1.8" stroke-linecap="round"/><path d="M576.4,974.3 L567,980 L576.4,985.7" fill="none" stroke="#7B818C" stroke-width="1.8" stroke-linecap="round" stroke-linejoin="round"/>
<path d="M569.7,940.7 L627.5,941.8 L690.4,942.5 L690.5,980.4 L688.9,1019.6 L627.3,1018.1 L569.1,1019.9 L566.6,981.6 Z" fill="#161B22" stroke="#F26D6D" stroke-width="2.4" stroke-linejoin="round" transform="rotate(-0.6 628.5 980)"/>
<text x="628" y="967" font-family="Segoe Print, Bradley Hand, Chalkboard SE, Comic Sans MS, Comic Neue, cursive, sans-serif" font-size="15.5" font-weight="bold" fill="#F26D6D" text-anchor="middle">FAIL</text>
<text x="628" y="987" font-family="Segoe Print, Bradley Hand, Chalkboard SE, Comic Sans MS, Comic Neue, cursive, sans-serif" font-size="10.5" font-weight="normal" fill="#A6ACB8" text-anchor="middle">blockers only</text>
<text x="628" y="1001" font-family="Segoe Print, Bradley Hand, Chalkboard SE, Comic Sans MS, Comic Neue, cursive, sans-serif" font-size="10.5" font-weight="normal" fill="#A6ACB8" text-anchor="middle">→ exit 1</text>
<g transform="rotate(-0.8 236 1150)"><path d="M36.5,1076.2 L93.2,1075.6 L150.1,1074.5 L206.8,1075.6 L265.8,1074.6 L321.3,1075.1 L378.3,1073.5 L437,1075.6 L435.5,1125.9 L436.7,1174.7 L436.2,1226.4 L379.9,1224.9 L320,1223.8 L264.2,1223.6 L207.2,1223.5 L149.6,1224.7 L94,1223.3 L35,1226.3 L36.2,1176.6 L37.6,1124.7 Z" fill="#3B3417" stroke="#C7AA3A" stroke-width="2" stroke-linejoin="round"/><path d="M420,1225 L436,1209 L420,1209 Z" fill="#C7AA3A" opacity="0.35"/></g>
<text x="60" y="1109" font-family="Segoe Print, Bradley Hand, Chalkboard SE, Comic Sans MS, Comic Neue, cursive, sans-serif" font-size="15.5" font-weight="bold" fill="#EFDF9C" text-anchor="start">kept honest — this repo’s own CI</text>
<text x="60" y="1137" font-family="Segoe Print, Bradley Hand, Chalkboard SE, Comic Sans MS, Comic Neue, cursive, sans-serif" font-size="13" font-weight="normal" fill="#EFDF9C" text-anchor="start">--self-check → rules.json is internally valid</text>
<text x="60" y="1159" font-family="Segoe Print, Bradley Hand, Chalkboard SE, Comic Sans MS, Comic Neue, cursive, sans-serif" font-size="13" font-weight="normal" fill="#EFDF9C" text-anchor="start">golden corpus → 5 fixture repos × 69 pinned</text>
<text x="60" y="1181" font-family="Segoe Print, Bradley Hand, Chalkboard SE, Comic Sans MS, Comic Neue, cursive, sans-serif" font-size="13" font-weight="normal" fill="#EFDF9C" text-anchor="start">     verdicts — ANY drift fails the build</text>
<text x="60" y="1203" font-family="Segoe Print, Bradley Hand, Chalkboard SE, Comic Sans MS, Comic Neue, cursive, sans-serif" font-size="13" font-weight="normal" fill="#EFDF9C" text-anchor="start">self-score → baseline scores its own repo</text>
<g transform="rotate(0.8 670 1150)"><path d="M468.4,1073.5 L526.7,1073.8 L583,1074.2 L642.4,1076.3 L699.5,1075 L756.2,1073.9 L811.7,1074.2 L871.5,1075.7 L870.6,1125.9 L870.1,1174.9 L869,1224.4 L812.8,1223.8 L754.6,1225.2 L697.4,1223.6 L640.8,1225.7 L584.7,1223.6 L527.7,1224.9 L468.8,1223.5 L468.6,1176.5 L471,1125.4 Z" fill="#122B3D" stroke="#4C9BD8" stroke-width="2" stroke-linejoin="round"/><path d="M854,1225 L870,1209 L854,1209 Z" fill="#4C9BD8" opacity="0.35"/></g>
<text x="494" y="1109" font-family="Segoe Print, Bradley Hand, Chalkboard SE, Comic Sans MS, Comic Neue, cursive, sans-serif" font-size="15.5" font-weight="bold" fill="#A8D5F5" text-anchor="start">next: V2 — “Lens &amp; Ledger”</text>
<text x="494" y="1137" font-family="Segoe Print, Bradley Hand, Chalkboard SE, Comic Sans MS, Comic Neue, cursive, sans-serif" font-size="13" font-weight="normal" fill="#A8D5F5" text-anchor="start">layer 4, THE SENSES, grows into three</text>
<text x="494" y="1159" font-family="Segoe Print, Bradley Hand, Chalkboard SE, Comic Sans MS, Comic Neue, cursive, sans-serif" font-size="13" font-weight="normal" fill="#A8D5F5" text-anchor="start">ground-truth planes: TREE · HISTORY · FORGE —</text>
<text x="494" y="1181" font-family="Segoe Print, Bradley Hand, Chalkboard SE, Comic Sans MS, Comic Neue, cursive, sans-serif" font-size="13" font-weight="normal" fill="#A8D5F5" text-anchor="start">status derived on demand, never hand-written</text>
<text x="494" y="1203" font-family="Segoe Print, Bradley Hand, Chalkboard SE, Comic Sans MS, Comic Neue, cursive, sans-serif" font-size="13" font-weight="normal" fill="#A8D5F5" text-anchor="start">→ docs/v2/PLAN.md</text>
<text x="1404" y="1171" font-family="ui-monospace, Menlo, Consolas, monospace" font-size="12.5" font-weight="normal" fill="#7B818C" text-anchor="end">drawn from the code on main — regenerate:</text>
<text x="1404" y="1191" font-family="ui-monospace, Menlo, Consolas, monospace" font-size="12.5" font-weight="normal" fill="#7B818C" text-anchor="end">node docs/assets/gen-evaluate-stack.mjs</text>
<text x="1404" y="1211" font-family="ui-monospace, Menlo, Consolas, monospace" font-size="12.5" font-weight="normal" fill="#7B818C" text-anchor="end">more: REFERENCE.md · GLOSSARY.md</text>
</svg>
